<svg width="160" height="145" viewBox="0 0 160 145" fill="none" xmlns="http://www.w3.org/2000/svg">
<path d="M134.868 61.4881V63.6461H110.822V61.4881C116.435 60.7687 117.41 59.214 115.293 53.204L111.892 43.5277H92.1036L89.1068 52.2062C86.7283 59.1212 87.4181 60.6759 93.4593 61.4881V63.6461H76.501V61.4881C81.139 60.8383 82.352 59.5389 85.1585 52.0438L102.402 5.91309H109.276L126.781 53.3201C129.041 59.5157 130.444 60.8383 134.868 61.4881ZM110.846 40.6968L101.879 15.2645L93.0788 40.6968H110.846Z" fill="#23337A"/>
<path d="M25.3225 83.2996V81.1416H49.2497V83.2996C43.5652 84.019 42.8993 85.5273 44.6593 91.4444L55.9332 128.711L66.66 91.6997C68.539 85.272 67.9206 84.135 62.1885 83.2996V81.1416H84.9265V83.2996C79.4323 84.0654 78.9804 85.1792 80.8356 91.4212L91.8478 128.757L102.503 92.5118C104.501 85.6433 104.025 84.1118 98.0318 83.3228V81.1416H114.966V83.2996C110.328 83.9493 109.02 85.2488 106.57 92.7439L91.4435 138.875H84.5222L70.2515 92.7439L55.5051 138.875H48.6551L33.2428 91.4677C31.1735 85.0168 29.5799 83.8565 25.3225 83.2996Z" fill="#23337A"/>
<path d="M0.189697 7.60039V5.44238H24.1169V7.60039C18.4324 8.31973 17.7665 9.82805 19.5265 15.7452L30.8004 53.0118L41.5272 16.0004C43.4062 9.57277 42.7878 8.43576 37.0557 7.60039V5.44238H59.7937V7.60039C54.2995 8.36614 53.8476 9.47996 55.7028 15.722L66.715 53.0581L77.3705 16.8126C79.3684 9.94406 78.8927 8.41257 72.899 7.62362V5.44238H89.8335V7.60039C85.1956 8.25012 83.8874 9.54959 81.4376 17.0447L66.3107 63.1754H59.3894L45.1187 17.0447L30.3722 63.1754H23.5223L8.10995 15.7684C6.04069 9.31758 4.44713 8.1573 0.189697 7.60039Z" fill="#23337A"/>
<path d="M159.966 136.717V138.875H135.92V136.717C141.533 135.997 142.508 134.443 140.392 128.433L136.99 118.756H117.202L114.205 127.435C111.826 134.35 112.516 135.904 118.557 136.717V138.875H101.599V136.717C106.237 136.067 107.45 134.767 110.257 127.272L127.5 81.1416H134.374L151.88 128.549C154.163 134.767 155.542 136.067 159.966 136.717ZM135.968 115.925L127.001 90.493L118.201 115.925H135.968Z" fill="#23337A"/>
</svg>
